<svg xmlns="http://www.w3.org/2000/svg" width="379.796" height="132.787" viewBox="-10 -6 379.796 132.787" class="css-1j8o68f"><g fill="#111"><path d="M62.361 106.048H3.838c-3.513 0-6.372-3.066-6.372-6.833V.832C-2.534-2.936.325-6 3.838-6h58.523c3.514 0 6.37 3.064 6.37 6.832v98.383c0 3.767-2.856 6.833-6.37 6.833zM3.838-4.439c-2.651 0-4.81 2.364-4.81 5.27v98.384c0 2.904 2.159 5.268 4.81 5.268h58.523c2.653 0 4.81-2.365 4.81-5.268V.832c0-2.906-2.157-5.27-4.81-5.27L3.838-4.439z" xmlns="http://www.w3.org/2000/svg"/><path d="M59.06 51.584H7.138a3.629 3.629 0 0 1-3.624-3.626 3.63 3.63 0 0 1 3.624-3.627H59.06c2 0 3.626 1.628 3.626 3.627a3.628 3.628 0 0 1-3.624 3.626zm-51.923-5.69a2.066 2.066 0 0 0-2.063 2.064c0 1.138.925 2.063 2.063 2.063H59.06a2.065 2.065 0 0 0 0-4.127H7.137z" xmlns="http://www.w3.org/2000/svg"/><path d="M59.06 57.383H7.138a3.629 3.629 0 0 1-3.624-3.626 3.628 3.628 0 0 1 3.624-3.624H59.06c2 0 3.626 1.625 3.626 3.624a3.628 3.628 0 0 1-3.624 3.626zm-51.923-5.69a2.066 2.066 0 0 0-2.063 2.064c0 1.14.925 2.066 2.063 2.066H59.06a2.065 2.065 0 0 0 0-4.13H7.137zM5.631 24.272a.617.617 0 1 1-1.235 0v-8.658a.617.617 0 1 1 1.235 0v8.658zM61.81 24.272a.618.618 0 0 1-1.235 0l-.001-8.658a.617.617 0 1 1 1.235 0v8.658zM72.742 105.32c-1.907 0-3.46-1.519-3.46-3.388V46.521c0-1.87 1.553-3.391 3.46-3.391 1.91 0 3.462 1.521 3.462 3.39v55.412c0 1.87-1.553 3.388-3.462 3.388zm0-60.63c-1.045 0-1.899.822-1.899 1.83v55.412c0 1.007.853 1.829 1.9 1.829s1.898-.822 1.898-1.829V46.521c-.001-1.009-.852-1.83-1.899-1.83zM-6.539 105.041c-1.909 0-3.461-1.514-3.461-3.378V46.508c0-1.862 1.552-3.378 3.461-3.378 1.908 0 3.462 1.516 3.462 3.378v55.154c0 1.865-1.553 3.38-3.462 3.38zm0-60.35c-1.048 0-1.899.815-1.899 1.817v55.154c0 1.003.851 1.817 1.9 1.817 1.046 0 1.898-.814 1.898-1.817V46.508c0-1.002-.852-1.817-1.899-1.817zM17.57 120.787H3.017c-2.856 0-5.18-3.08-5.18-6.86s2.323-6.856 5.18-6.856h14.555c2.855 0 5.18 3.078 5.18 6.857-.002 3.78-2.326 6.859-5.182 6.859zM3.017 108.632c-1.995 0-3.618 2.377-3.618 5.296 0 2.92 1.623 5.296 3.618 5.296h14.555c1.995 0 3.618-2.376 3.618-5.296 0-2.92-1.623-5.296-3.618-5.296H3.017zM62.964 120.787H48.411c-2.856 0-5.182-3.08-5.182-6.86s2.323-6.856 5.182-6.856h14.555c2.855 0 5.18 3.078 5.18 6.857-.002 3.78-2.323 6.859-5.182 6.859zm-14.553-12.155c-1.995 0-3.618 2.377-3.618 5.296 0 2.92 1.623 5.296 3.618 5.296h14.555c1.995 0 3.617-2.376 3.617-5.296 0-2.92-1.622-5.296-3.617-5.296H48.41z" xmlns="http://www.w3.org/2000/svg"/></g><path d="M128.026 57.615h5.913l-5.58 19.292h-5.876l-2.55-10.496-.019.055-.074.352-.203.923-.425 1.793-.702 2.956-1.053 4.417h-5.914l-.24-.813-.628-2.18-.887-3.105-1.016-3.548c-.813-2.833-1.737-6.049-2.772-9.646h5.95l2.402 9.683.222 1.146.222-1.146 2.254-9.683h5.765l2.329 9.72.258 1.109.074-.592c.025-.172.062-.357.111-.554zm8.315-2.143c0 .024-.166.037-.499.037H133.2L135.713 51h6.209v8.352c.517-.493 1.158-.93 1.922-1.312s1.675-.573 2.734-.573c2.193 0 3.825.61 4.897 1.83s1.608 3.16 1.608 5.82v11.79h-5.618v-11.05c0-.961-.221-1.725-.665-2.292s-1.12-.85-2.033-.85c-.788 0-1.46.216-2.014.647s-.831 1.25-.831 2.458v11.087h-5.655zm30.157 12.972c-.246-.05-.505-.08-.776-.093s-.505-.018-.702-.018c-1.035 0-1.873.16-2.513.48s-.961.875-.961 1.663c0 .493.117.88.351 1.164s.524.493.868.629.709.215 1.09.24.709.037.98.037c.493 0 1.047-.062 1.663-.185v-3.917zm-1.922-4.066c.197 0 .462.007.795.019s.708.03 1.127.055c-.025-.96-.364-1.583-1.016-1.866s-1.497-.425-2.532-.425c-.567 0-1.22.068-1.959.203s-1.54.34-2.402.61l-.591-2.033c-.074-.27-.179-.665-.314-1.182s-.228-.924-.277-1.22c1.231-.419 2.396-.72 3.492-.905s2.088-.277 2.975-.277c2.611 0 4.632.622 6.06 1.866s2.144 3.234 2.144 5.968V76.02c-.96.27-2.07.536-3.326.794s-2.611.388-4.065.388c-1.281 0-2.445-.11-3.492-.332s-1.947-.592-2.698-1.109-1.33-1.195-1.737-2.033-.61-1.86-.61-3.067.253-2.217.758-3.03 1.158-1.46 1.958-1.94 1.7-.82 2.698-1.017 2.002-.296 3.012-.296zm11.679-2.143h-2.292v-4.657h2.292v-5.247h5.543v5.247h4.583l-2.587 4.657h-2.18l.184 1.182v5.803c0 .64.043 1.158.13 1.552s.221.702.406.924.419.376.702.462.61.13.98.13c.27 0 .603-.032.997-.093s.813-.13 1.257-.204l.295 2.477.222 2.217c-.714.148-1.367.259-1.959.333s-1.194.11-1.81.11c-2.292 0-3.992-.53-5.1-1.589s-1.663-2.808-1.663-5.248v-8.056zm26.793 6.689c-1.33-.394-2.427-.998-3.29-1.81s-1.293-1.984-1.293-3.512c0-1.921.678-3.424 2.033-4.508s3.228-1.626 5.617-1.626c.912 0 1.854.098 2.828.295s2.186.555 3.64 1.072l-2.218 3.991c-.763-.27-1.422-.474-1.977-.61s-1.188-.203-1.903-.203c-.665 0-1.189.093-1.57.277s-.573.487-.573.906c0 .345.141.591.425.739s.659.308 1.127.48l1.995.592c.666.197 1.288.43 1.867.702s1.071.61 1.478 1.016.727.918.96 1.534.352 1.367.352 2.254c0 .936-.191 1.805-.573 2.606s-.936 1.496-1.663 2.088-1.614 1.053-2.66 1.386-2.237.498-3.567.498c-.517 0-1.016-.018-1.497-.055s-.955-.099-1.423-.185-.96-.203-1.478-.35-1.072-.321-1.663-.518c.05-.173.099-.37.148-.592s.123-.498.222-.831.209-.733.332-1.201.283-1.047.48-1.737c1.035.27 1.904.468 2.606.591s1.41.185 2.125.185c.296 0 .61-.025.942-.074s.647-.136.943-.259.542-.283.739-.48.296-.456.296-.776c0-.37-.13-.628-.388-.776s-.647-.308-1.165-.48zm13.194-13.452c0 .024-.167.037-.5.037H213.1L215.613 51h6.209v8.352c.517-.493 1.158-.93 1.922-1.312s1.675-.573 2.735-.573c2.192 0 3.825.61 4.896 1.83s1.608 3.16 1.608 5.82v11.79h-5.618v-11.05c0-.961-.221-1.725-.665-2.292s-1.12-.85-2.032-.85c-.789 0-1.46.216-2.014.647s-.832 1.25-.832 2.458v11.087h-5.654zm28.567 1.922c1.281 0 2.433.178 3.456.535s1.878.937 2.568 1.737 1.22 1.83 1.59 3.086.553 2.772.553 4.546v.573l-.073 1.164h-10.348l-.776-.111c.024.714.104 1.287.24 1.718s.332.77.591 1.017.573.419.943.517.788.16 1.256.185c.764.05 1.423-.062 1.977-.333s1.078-.825 1.57-1.663c.765.247 1.467.48 2.107.703.542.197 1.035.37 1.479.517s.665.21.665.185c-.887 1.848-1.965 3.197-3.234 4.047s-2.79 1.275-4.564 1.275c-1.306 0-2.488-.173-3.548-.518s-1.958-.905-2.698-1.681-1.312-1.787-1.718-3.03-.61-2.766-.61-4.565c0-1.75.203-3.246.61-4.49s.98-2.267 1.718-3.068 1.639-1.392 2.698-1.774 2.242-.572 3.548-.572zm2.033 7.39.554.075c-.05-.863-.277-1.534-.684-2.014s-1.04-.721-1.903-.721c-.985 0-1.694.24-2.125.72s-.696 1.152-.794 2.015c.123-.025.234-.043.332-.056s.21-.018.333-.018h4.287zm19.217-9.238h-2.735L265.69 51h5.95v25.907h-5.58V55.546zm5.544 11.382 4.767-9.313h6.32l-4.953 9.055c.444.788.906 1.62 1.386 2.494s.967 1.756 1.46 2.643.98 1.767 1.46 2.642.942 1.694 1.386 2.458h-6.283zm14.782-4.73h-3.104l2.439-4.583h5.359l.48 2.07c.616-.665 1.35-1.22 2.2-1.663s1.828-.665 2.937-.665c2.242 0 3.905.597 4.99 1.792s1.625 3.086 1.625 5.673v12.085h-5.617V65.783c0-1.134-.277-1.947-.832-2.44s-1.262-.739-2.125-.739c-.714 0-1.355.24-1.921.721s-.85 1.275-.85 2.384v11.198h-5.58v-14.71zm29.64-4.804c1.28 0 2.476.178 3.584.535s2.064.93 2.864 1.719 1.43 1.81 1.885 3.067.684 2.772.684 4.546-.228 3.29-.684 4.546-1.084 2.279-1.885 3.067-1.755 1.361-2.864 1.719-2.303.535-3.585.535c-1.305 0-2.506-.178-3.603-.535s-2.045-.93-2.845-1.719-1.43-1.81-1.885-3.067-.684-2.772-.684-4.546c0-1.75.228-3.246.684-4.49s1.084-2.267 1.885-3.068 1.749-1.385 2.845-1.755 2.298-.554 3.603-.554zm0 14.893c1.108 0 1.977-.37 2.605-1.109s.942-2.045.942-3.917-.314-3.184-.942-3.936-1.497-1.127-2.606-1.127c-1.084 0-1.952.388-2.605 1.164s-.98 2.076-.98 3.899c0 1.872.321 3.178.962 3.917s1.515 1.11 2.623 1.11zm32.189-14.672h5.913l-5.58 19.292h-5.877l-2.55-10.496-.018.055-.074.352-.203.923-.425 1.793-.703 2.956-1.053 4.417h-5.913l-.24-.813-.628-2.18-.887-3.105-1.017-3.548-2.771-9.646h5.95l2.402 9.683.221 1.146.222-1.146 2.255-9.683h5.765l2.328 9.72.259 1.109.074-.592c.024-.172.061-.357.11-.554zm12.048 11.309c-1.33-.394-2.427-.998-3.29-1.81s-1.293-1.984-1.293-3.512c0-1.921.677-3.424 2.033-4.508s3.227-1.626 5.617-1.626c.912 0 1.854.098 2.827.295s2.187.555 3.64 1.072l-2.217 3.991c-.764-.27-1.423-.474-1.977-.61s-1.189-.203-1.904-.203c-.665 0-1.188.093-1.57.277s-.573.487-.573.906c0 .345.142.591.425.739s.66.308 1.127.48l1.996.592c.665.197 1.287.43 1.866.702s1.072.61 1.478 1.016.727.918.961 1.534.351 1.367.351 2.254c0 .936-.19 1.805-.572 2.606s-.937 1.496-1.663 2.088-1.614 1.053-2.661 1.386-2.236.498-3.567.498c-.517 0-1.016-.018-1.496-.055s-.955-.099-1.423-.185-.961-.203-1.478-.35-1.072-.321-1.664-.518c.05-.173.099-.37.148-.592s.123-.498.222-.831.21-.733.333-1.201.283-1.047.48-1.737c1.035.27 1.903.468 2.605.591s1.411.185 2.125.185c.296 0 .61-.025.943-.074s.647-.136.942-.259.542-.283.74-.48.295-.456.295-.776c0-.37-.13-.628-.388-.776s-.647-.308-1.164-.48z" fill="#111"/></svg>