<svg xmlns="http://www.w3.org/2000/svg" width="379.79633096218646" height="132.7866721656008" viewBox="-10 -6 379.79633096218646 132.7866721656008" class="css-1j8o68f"><defs id="SvgjsDefs1881"></defs><g id="SvgjsG1882" featurekey="QMusi1-0" transform="matrix(1.408740758895874,0,0,1.408740758895874,-37.335205573093674,-13.043704680940007)" fill="#111111"><g xmlns="http://www.w3.org/2000/svg"><path fill="#111111" d="M70.77,84.538H29.227c-2.494,0-4.523-2.177-4.523-4.851V9.85c0-2.675,2.029-4.85,4.523-4.85H70.77   c2.494,0,4.522,2.175,4.522,4.85v69.837C75.292,82.361,73.264,84.538,70.77,84.538z M29.227,6.108   c-1.882,0-3.414,1.678-3.414,3.741v69.838c0,2.062,1.532,3.74,3.414,3.74H70.77c1.883,0,3.414-1.679,3.414-3.74V9.85   c0-2.063-1.531-3.741-3.414-3.741L29.227,6.108L29.227,6.108z"></path></g><g xmlns="http://www.w3.org/2000/svg"><path fill="#111111" d="M68.427,45.876H31.569c-1.419,0-2.573-1.154-2.573-2.574c0-1.419,1.154-2.574,2.573-2.574h36.857   c1.42,0,2.574,1.155,2.574,2.574C71.001,44.722,69.846,45.876,68.427,45.876z M31.569,41.837c-0.808,0-1.465,0.657-1.465,1.465   c0,0.808,0.657,1.465,1.465,1.465h36.857c0.809,0,1.465-0.657,1.465-1.465c0-0.808-0.656-1.465-1.465-1.465H31.569z"></path></g><g xmlns="http://www.w3.org/2000/svg"><path fill="#111111" d="M68.427,49.993H31.569c-1.419,0-2.573-1.154-2.573-2.574c0-1.419,1.154-2.573,2.573-2.573h36.857   C69.846,44.846,71,46,71,47.419C71.001,48.839,69.846,49.993,68.427,49.993z M31.569,45.954c-0.808,0-1.465,0.657-1.465,1.465   c0,0.809,0.657,1.466,1.465,1.466h36.857c0.809,0,1.465-0.657,1.465-1.466c0-0.808-0.656-1.465-1.465-1.465H31.569z"></path></g><g xmlns="http://www.w3.org/2000/svg"><path fill="#111111" d="M30.5,26.489c0,0.242-0.197,0.438-0.439,0.438l0,0c-0.242,0-0.438-0.196-0.438-0.438v-6.146   c0-0.243,0.196-0.439,0.438-0.439l0,0c0.243,0,0.439,0.196,0.439,0.439V26.489z"></path></g><g xmlns="http://www.w3.org/2000/svg"><path fill="#111111" d="M70.378,26.489c0,0.242-0.196,0.438-0.438,0.438l0,0c-0.242,0-0.439-0.196-0.439-0.438v-6.146   c0-0.243,0.197-0.439,0.439-0.439l0,0c0.242,0,0.438,0.196,0.438,0.439V26.489z"></path></g><g xmlns="http://www.w3.org/2000/svg"><path fill="#111111" d="M78.139,84.021c-1.354,0-2.457-1.078-2.457-2.405V42.282c0-1.327,1.103-2.407,2.457-2.407   c1.355,0,2.457,1.08,2.457,2.407v39.334C80.596,82.943,79.494,84.021,78.139,84.021z M78.139,40.983   c-0.742,0-1.348,0.583-1.348,1.299v39.334c0,0.715,0.605,1.298,1.348,1.298c0.744,0,1.348-0.583,1.348-1.298V42.282   C79.486,41.566,78.882,40.983,78.139,40.983z"></path></g><g xmlns="http://www.w3.org/2000/svg"><path fill="#111111" d="M21.861,83.823c-1.355,0-2.457-1.075-2.457-2.398V42.273c0-1.322,1.102-2.398,2.457-2.398   c1.354,0,2.457,1.076,2.457,2.398v39.151C24.318,82.748,23.216,83.823,21.861,83.823z M21.861,40.983   c-0.744,0-1.348,0.579-1.348,1.29v39.151c0,0.712,0.604,1.29,1.348,1.29c0.743,0,1.348-0.578,1.348-1.29V42.273   C23.209,41.562,22.604,40.983,21.861,40.983z"></path></g><g xmlns="http://www.w3.org/2000/svg"><path fill="#111111" d="M38.975,95H28.644c-2.027,0-3.677-2.186-3.677-4.869s1.649-4.867,3.677-4.867h10.332   c2.027,0,3.677,2.185,3.677,4.867C42.652,92.814,41.002,95,38.975,95z M28.644,86.372c-1.416,0-2.568,1.687-2.568,3.759   c0,2.073,1.152,3.76,2.568,3.76h10.332c1.416,0,2.568-1.687,2.568-3.76c0-2.072-1.152-3.759-2.568-3.759H28.644z"></path></g><g xmlns="http://www.w3.org/2000/svg"><path fill="#111111" d="M71.198,95H60.867c-2.027,0-3.678-2.186-3.678-4.869s1.649-4.867,3.678-4.867h10.332   c2.027,0,3.677,2.185,3.677,4.867C74.875,92.814,73.227,95,71.198,95z M60.867,86.372c-1.416,0-2.568,1.687-2.568,3.759   c0,2.073,1.152,3.76,2.568,3.76h10.332c1.416,0,2.568-1.687,2.568-3.76c0-2.072-1.152-3.759-2.568-3.759H60.867z"></path></g></g><g id="SvgjsG1883" featurekey="UyNsn2-0" transform="matrix(1.847830891609192,0,0,1.847830891609192,105.85217454906802,39.95004335754129)" fill="#111111"><path d="M12 9.56 l3.2 0 l-3.02 10.44 l-3.18 0 l-1.38 -5.68 l-0.01 0.03 l-0.04 0.19 l-0.11 0.5 l-0.23 0.97 l-0.38 1.6 l-0.57 2.39 l-3.2 0 l-0.13 -0.44 l-0.34 -1.18 l-0.48 -1.68 l-0.55 -1.92 c-0.44 -1.5333 -0.94 -3.2734 -1.5 -5.22 l3.22 0 l1.3 5.24 l0.12 0.62 l0.12 -0.62 l1.22 -5.24 l3.12 0 l1.26 5.26 l0.14 0.6 l0.04 -0.32 c0.01334 -0.09334 0.03334 -0.19334 0.06 -0.3 z M16.5 8.4 c0 0.01334 -0.09002 0.019961 -0.27002 0.019961 l-0.59 0 l-0.84 0 l1.36 -2.44 l3.36 0 l0 4.52 c0.28 -0.26666 0.62666 -0.50332 1.04 -0.70998 s0.90668 -0.31 1.48 -0.31 c1.1867 0 2.07 0.33 2.65 0.99 s0.87 1.71 0.87 3.15 l0 6.38 l-3.04 0 l0 -5.98 c0 -0.52 -0.12 -0.93334 -0.36 -1.24 s-0.60666 -0.46 -1.1 -0.46 c-0.42666 0 -0.79 0.11666 -1.09 0.35 s-0.45 0.67668 -0.45 1.33 l0 6 l-3.06 0 z M32.82 15.42 c-0.13334 -0.02666 -0.2733 -0.04338 -0.41996 -0.050038 s-0.27332 -0.01 -0.37998 -0.01 c-0.56 0 -1.0133 0.08666 -1.36 0.26 s-0.52 0.47334 -0.52 0.9 c0 0.26666 0.06334 0.47666 0.19 0.63 s0.28332 0.26668 0.46998 0.34002 s0.38332 0.11668 0.58998 0.13002 s0.38332 0.02 0.52998 0.02 c0.26666 0 0.56666 -0.03334 0.9 -0.1 l0 -2.12 z M31.78 13.219999999999999 c0.10666 0 0.24996 0.0033594 0.42996 0.01002 s0.38334 0.01666 0.61 0.03 c-0.01334 -0.52 -0.19668 -0.85666 -0.55002 -1.01 s-0.81 -0.23 -1.37 -0.23 c-0.30666 0 -0.66 0.03666 -1.06 0.11 s-0.83334 0.18334 -1.3 0.33 l-0.32 -1.1 c-0.04 -0.14666 -0.09666 -0.36 -0.17 -0.64 s-0.12334 -0.5 -0.15 -0.66 c0.66666 -0.22666 1.2967 -0.39 1.89 -0.49 s1.13 -0.15 1.61 -0.15 c1.4133 0 2.5066 0.33666 3.28 1.01 s1.16 1.75 1.16 3.23 l0 5.86 c-0.52 0.14666 -1.12 0.29 -1.8 0.43 s-1.4133 0.21 -2.2 0.21 c-0.69334 0 -1.3233 -0.06 -1.89 -0.18 s-1.0533 -0.32 -1.46 -0.6 s-0.72 -0.64666 -0.94 -1.1 s-0.33 -1.0067 -0.33 -1.66 s0.13666 -1.2 0.41 -1.64 s0.62668 -0.79 1.06 -1.05 s0.92 -0.44334 1.46 -0.55 s1.0833 -0.16 1.63 -0.16 z M38.099999999999994 12.059999999999999 l-1.24 0 l0 -2.52 l1.24 0 l0 -2.84 l3 0 l0 2.84 l2.48 0 l-1.4 2.52 l-1.18 0 l0.1 0.64 l0 3.14 c0 0.34666 0.02334 0.62666 0.07 0.84 s0.12 0.38 0.22 0.5 s0.22666 0.20334 0.38 0.25 s0.33 0.07 0.53 0.07 c0.14666 0 0.32666 -0.01666 0.54 -0.05 s0.44 -0.07 0.68 -0.11 l0.16 1.34 l0.12 1.2 c-0.38666 0.08 -0.74 0.14 -1.06 0.18 s-0.64666 0.06 -0.98 0.06 c-1.24 0 -2.16 -0.28666 -2.76 -0.86 s-0.9 -1.52 -0.9 -2.84 l0 -4.36 z M52.599999999999994 15.68 c-0.72 -0.21334 -1.3133 -0.53998 -1.78 -0.97998 s-0.7 -1.0733 -0.7 -1.9 c0 -1.04 0.36666 -1.8533 1.1 -2.44 s1.7467 -0.88 3.04 -0.88 c0.49334 0 1.0033 0.05334 1.53 0.16 s1.1833 0.3 1.97 0.58 l-1.2 2.16 c-0.41334 -0.14666 -0.77 -0.25666 -1.07 -0.33 s-0.64334 -0.11 -1.03 -0.11 c-0.36 0 -0.64334 0.05 -0.85 0.15 s-0.31 0.26334 -0.31 0.49 c0 0.18666 0.07666 0.32 0.23 0.4 s0.35668 0.16666 0.61002 0.26 l1.08 0.32 c0.36 0.10666 0.69666 0.23332 1.01 0.37998 s0.58 0.33 0.8 0.55 s0.39334 0.49666 0.52 0.83 s0.19 0.74 0.19 1.22 c0 0.50666 -0.10334 0.97666 -0.31 1.41 s-0.50666 0.81 -0.9 1.13 s-0.87334 0.57 -1.44 0.75 s-1.21 0.27 -1.93 0.27 c-0.28 0 -0.55 -0.01 -0.81 -0.03 s-0.51666 -0.05334 -0.77 -0.1 s-0.52 -0.11 -0.8 -0.19 s-0.58 -0.17334 -0.9 -0.28 c0.02666 -0.09334 0.05332 -0.2 0.07998 -0.32 s0.06666 -0.27 0.12 -0.45 s0.11334 -0.39666 0.18 -0.65 s0.15332 -0.56668 0.25998 -0.94002 c0.56 0.14666 1.03 0.25332 1.41 0.31998 s0.76334 0.1 1.15 0.1 c0.16 0 0.33 -0.01334 0.51 -0.04 s0.35 -0.07332 0.51 -0.13998 s0.29334 -0.15332 0.4 -0.25998 s0.16 -0.24666 0.16 -0.42 c0 -0.2 -0.07 -0.34 -0.21 -0.42 s-0.35 -0.16666 -0.63 -0.26 z M59.739999999999995 8.4 c0 0.01334 -0.09002 0.019961 -0.27002 0.019961 l-0.59 0 l-0.84 0 l1.36 -2.44 l3.36 0 l0 4.52 c0.28 -0.26666 0.62666 -0.50332 1.04 -0.70998 s0.90668 -0.31 1.48 -0.31 c1.1867 0 2.07 0.33 2.65 0.99 s0.87 1.71 0.87 3.15 l0 6.38 l-3.04 0 l0 -5.98 c0 -0.52 -0.12 -0.93334 -0.36 -1.24 s-0.60666 -0.46 -1.1 -0.46 c-0.42666 0 -0.79 0.11666 -1.09 0.35 s-0.45 0.67668 -0.45 1.33 l0 6 l-3.06 0 z M75.19999999999999 9.44 c0.69334 0 1.3166 0.096622 1.87 0.28996 s1.0167 0.50668 1.39 0.94002 s0.66 0.99 0.86 1.67 s0.3 1.5 0.3 2.46 l0 0.31 l-0.04 0.63 l-5.6 0 l-0.42 -0.06 c0.01334 0.38666 0.05668 0.69666 0.13002 0.93 s0.18 0.41668 0.32 0.55002 s0.31 0.22668 0.51 0.28002 s0.42666 0.08668 0.68 0.10002 c0.41334 0.02666 0.77 -0.03334 1.07 -0.18 s0.58334 -0.44666 0.85 -0.9 c0.41334 0.13334 0.79334 0.26 1.14 0.38 c0.29334 0.10666 0.56 0.2 0.8 0.28 s0.36 0.11334 0.36 0.1 c-0.48 1 -1.0633 1.73 -1.75 2.19 s-1.51 0.69 -2.47 0.69 c-0.70666 0 -1.3467 -0.09334 -1.92 -0.28 s-1.06 -0.49 -1.46 -0.91 s-0.71 -0.96666 -0.93 -1.64 s-0.33 -1.4967 -0.33 -2.47 c0 -0.94666 0.11 -1.7567 0.33 -2.43 s0.53 -1.2267 0.93 -1.66 s0.88666 -0.75334 1.46 -0.96 s1.2133 -0.31 1.92 -0.31 z M76.3 13.440000000000001 l0.30004 0.04 c-0.02666 -0.46666 -0.15 -0.83 -0.37 -1.09 s-0.56334 -0.39 -1.03 -0.39 c-0.53334 0 -0.91668 0.13 -1.15 0.39 s-0.37668 0.62334 -0.43002 1.09 c0.06666 -0.01334 0.12666 -0.02334 0.18 -0.03 s0.11334 -0.01 0.18 -0.01 l2.32 0 z M86.69999999999999 8.44 l-1.48 0 l1.28 -2.46 l3.22 0 l0 14.02 l-3.02 0 l0 -11.56 z M89.69999999999999 14.6 l2.58 -5.04 l3.42 0 l-2.68 4.9 c0.24 0.42666 0.49 0.87666 0.75 1.35 s0.52334 0.95 0.79 1.43 s0.53 0.95666 0.79 1.43 s0.51 0.91668 0.75 1.33 l-3.4 0 z M97.69999999999999 12.04 l-1.68 0 l1.32 -2.48 l2.9 0 l0.26 1.12 c0.33334 -0.36 0.73 -0.66 1.19 -0.9 s0.99 -0.36 1.59 -0.36 c1.2133 0 2.1134 0.32334 2.7 0.97 s0.88 1.67 0.88 3.07 l0 6.54 l-3.04 0 l0 -6.02 c0 -0.61334 -0.15 -1.0533 -0.45 -1.32 s-0.68334 -0.4 -1.15 -0.4 c-0.38666 0 -0.73332 0.13 -1.04 0.39 s-0.46 0.69 -0.46 1.29 l0 6.06 l-3.02 0 l0 -7.96 z M113.74 9.44 c0.69334 0 1.34 0.09668 1.94 0.29002 s1.1167 0.50334 1.55 0.93 s0.77334 0.98 1.02 1.66 s0.37 1.5 0.37 2.46 s-0.12334 1.78 -0.37 2.46 s-0.58666 1.2333 -1.02 1.66 s-0.95 0.73666 -1.55 0.93 s-1.2467 0.29 -1.94 0.29 c-0.70666 0 -1.3567 -0.09666 -1.95 -0.29 s-1.1067 -0.50334 -1.54 -0.93 s-0.77334 -0.98 -1.02 -1.66 s-0.37 -1.5 -0.37 -2.46 c0 -0.94666 0.12334 -1.7567 0.37 -2.43 s0.58666 -1.2267 1.02 -1.66 s0.94668 -0.75 1.54 -0.95 s1.2433 -0.3 1.95 -0.3 z M113.74 17.5 c0.6 0 1.07 -0.2 1.41 -0.6 s0.51 -1.1067 0.51 -2.12 s-0.17 -1.7233 -0.51 -2.13 s-0.81 -0.61 -1.41 -0.61 c-0.58666 0 -1.0567 0.21 -1.41 0.63 s-0.53 1.1233 -0.53 2.11 c0 1.0133 0.17334 1.72 0.52 2.12 s0.82 0.6 1.42 0.6 z M131.16 9.56 l3.2 0 l-3.02 10.44 l-3.18 0 l-1.38 -5.68 l-0.01 0.03 l-0.04 0.19 l-0.11 0.5 l-0.23 0.97 l-0.38 1.6 l-0.57 2.39 l-3.2 0 l-0.13 -0.44 l-0.34 -1.18 l-0.48 -1.68 l-0.55 -1.92 c-0.44 -1.5333 -0.94 -3.2734 -1.5 -5.22 l3.22 0 l1.3 5.24 l0.12 0.62 l0.12 -0.62 l1.22 -5.24 l3.12 0 l1.26 5.26 l0.14 0.6 l0.04 -0.32 c0.01334 -0.09334 0.03334 -0.19334 0.06 -0.3 z M137.68 15.68 c-0.72 -0.21334 -1.3133 -0.53998 -1.78 -0.97998 s-0.7 -1.0733 -0.7 -1.9 c0 -1.04 0.36666 -1.8533 1.1 -2.44 s1.7467 -0.88 3.04 -0.88 c0.49334 0 1.0033 0.05334 1.53 0.16 s1.1833 0.3 1.97 0.58 l-1.2 2.16 c-0.41334 -0.14666 -0.77 -0.25666 -1.07 -0.33 s-0.64334 -0.11 -1.03 -0.11 c-0.36 0 -0.64334 0.05 -0.85 0.15 s-0.31 0.26334 -0.31 0.49 c0 0.18666 0.07666 0.32 0.23 0.4 s0.35668 0.16666 0.61002 0.26 l1.08 0.32 c0.36 0.10666 0.69666 0.23332 1.01 0.37998 s0.58 0.33 0.8 0.55 s0.39334 0.49666 0.52 0.83 s0.19 0.74 0.19 1.22 c0 0.50666 -0.10334 0.97666 -0.31 1.41 s-0.50666 0.81 -0.9 1.13 s-0.87334 0.57 -1.44 0.75 s-1.21 0.27 -1.93 0.27 c-0.28 0 -0.55 -0.01 -0.81 -0.03 s-0.51666 -0.05334 -0.77 -0.1 s-0.52 -0.11 -0.8 -0.19 s-0.58 -0.17334 -0.9 -0.28 c0.02666 -0.09334 0.05332 -0.2 0.07998 -0.32 s0.06666 -0.27 0.12 -0.45 s0.11334 -0.39666 0.18 -0.65 s0.15332 -0.56668 0.25998 -0.94002 c0.56 0.14666 1.03 0.25332 1.41 0.31998 s0.76334 0.1 1.15 0.1 c0.16 0 0.33 -0.01334 0.51 -0.04 s0.35 -0.07332 0.51 -0.13998 s0.29334 -0.15332 0.4 -0.25998 s0.16 -0.24666 0.16 -0.42 c0 -0.2 -0.07 -0.34 -0.21 -0.42 s-0.35 -0.16666 -0.63 -0.26 z"></path></g></svg>